<?xml version="1.0" encoding="iso-8859-1"?>
<!-- Generator: Adobe Illustrator 19.0.0, SVG Export Plug-In . SVG Version: 6.00 Build 0)  -->
<svg fill="#2c3e50" version="1.1" id="Layer_1" xmlns="http://www.w3.org/2000/svg" xmlns:xlink="http://www.w3.org/1999/xlink" x="0px" y="0px"
	 viewBox="0 0 511.999 511.999" style="enable-background:new 0 0 511.999 511.999;" xml:space="preserve">
<g>
	<g>
		<path d="M404.432,107.991c-22.372-39.647-58.844-68.21-102.698-80.425c-43.855-12.216-89.84-6.623-129.487,15.749
			c-9.949,5.614-13.462,18.229-7.849,28.177c5.614,9.948,18.228,13.461,28.177,7.849c30.026-16.943,64.852-21.178,98.06-11.927
			c33.209,9.251,60.83,30.88,77.772,60.905c10.91,19.336,16.672,41.291,16.66,63.503v85.57c0,11.423,9.259,20.682,20.682,20.682
			c11.423,0,20.682-9.259,20.683-20.682v-85.559C426.446,162.516,418.839,133.524,404.432,107.991z"/>
	</g>
</g>
<g>
	<g>
		<path d="M362.962,342.279H114.918c7.628-12.726,12.016-27.607,12.016-43.494v-106.99c-0.025-20.566,4.947-41.096,14.382-59.37
			c5.24-10.15,1.26-22.625-8.89-27.865c-10.149-5.24-22.625-1.26-27.865,8.89c-12.458,24.131-19.025,51.24-18.991,78.372v106.963
			c0,23.982-19.512,43.494-43.495,43.494c-11.422,0-20.682,9.259-20.682,20.682s9.26,20.682,20.682,20.682h320.887
			c11.423,0,20.682-9.259,20.682-20.682S374.385,342.279,362.962,342.279z"/>
	</g>
</g>
<g>
	<g>
		<path d="M303.385,430.64c-9.882-5.731-22.536-2.366-28.268,7.514c-2.963,5.107-7.736,8.755-13.442,10.27
			c-5.705,1.518-11.661,0.722-16.767-2.242c-3.324-1.927-6.1-4.704-8.028-8.028c-5.731-9.881-18.388-13.243-28.268-7.513
			c-9.88,5.731-13.243,18.388-7.512,28.268c5.537,9.545,13.509,17.517,23.054,23.054c9.806,5.688,20.7,8.595,31.741,8.595
			c5.47,0,10.978-0.714,16.405-2.157c16.383-4.353,30.091-14.828,38.598-29.492C316.629,449.028,313.265,436.371,303.385,430.64z"/>
	</g>
</g>
<g>
	<g>
		<path d="M505.942,476.693L35.306,6.058c-8.076-8.077-21.172-8.077-29.248,0c-8.077,8.076-8.077,21.171,0,29.248l470.636,470.636
			c4.038,4.039,9.332,6.058,14.625,6.058c5.293,0,10.587-2.019,14.624-6.057C514.018,497.866,514.018,484.77,505.942,476.693z"/>
	</g>
</g>
<g>
</g>
<g>
</g>
<g>
</g>
<g>
</g>
<g>
</g>
<g>
</g>
<g>
</g>
<g>
</g>
<g>
</g>
<g>
</g>
<g>
</g>
<g>
</g>
<g>
</g>
<g>
</g>
<g>
</g>
</svg>
