<?xml version="1.0" encoding="iso-8859-1"?>
<!-- Generator: Adobe Illustrator 19.0.0, SVG Export Plug-In . SVG Version: 6.00 Build 0)  -->
<svg fill="#2c3e50" version="1.1" id="Layer_1" xmlns="http://www.w3.org/2000/svg" xmlns:xlink="http://www.w3.org/1999/xlink" x="0px" y="0px"
	 viewBox="0 0 512 512" style="enable-background:new 0 0 512 512;" xml:space="preserve">
<g>
	<g>
		<path d="M491.321,47.029c-11.422,0-20.68,9.259-20.68,20.68v120.504H350.136c-11.422,0-20.68,9.259-20.68,20.68
			c0,11.421,9.258,20.68,20.68,20.68h141.185c11.421,0,20.68-9.259,20.68-20.68V67.709C512,56.288,502.742,47.029,491.321,47.029z"
			/>
	</g>
</g>
<g>
	<g>
		<path d="M505.497,193.837L396.773,91.454c-24.342-24.289-54.338-43.178-86.761-54.633c-58.545-20.684-121.64-17.331-177.664,9.441
			c-56.022,26.771-98.266,73.758-118.95,132.303S-3.932,300.205,22.84,356.229c26.772,56.022,73.758,98.267,132.303,118.95
			c25.331,8.949,51.511,13.399,77.604,13.399c34.213,0,68.277-7.652,100.06-22.841c56.022-26.772,98.267-73.758,118.951-132.303
			c3.804-10.769-1.841-22.582-12.61-26.387c-10.768-3.804-22.583,1.841-26.387,12.61c-17.004,48.128-51.733,86.755-97.788,108.764
			c-46.056,22.008-97.925,24.765-146.052,7.761c-48.128-17.003-86.754-51.732-108.763-97.787
			c-22.009-46.055-24.766-97.924-7.762-146.052s51.732-86.754,97.787-108.763c46.056-22.01,97.925-24.765,146.053-7.762
			c26.737,9.446,51.466,25.042,71.511,45.099c0.148,0.149,0.298,0.294,0.45,0.438l108.946,102.594
			c8.313,7.831,21.401,7.437,29.232-0.878C514.205,214.755,513.812,201.667,505.497,193.837z"/>
	</g>
</g>
<g>
</g>
<g>
</g>
<g>
</g>
<g>
</g>
<g>
</g>
<g>
</g>
<g>
</g>
<g>
</g>
<g>
</g>
<g>
</g>
<g>
</g>
<g>
</g>
<g>
</g>
<g>
</g>
<g>
</g>
</svg>
