<?xml version="1.0" standalone="no"?>
<svg xmlns:xlink="http://www.w3.org/1999/xlink" id="wave" style="transform:rotate(180deg); transition: 0.3s" viewBox="0 0 1440 100" version="1.1" xmlns="http://www.w3.org/2000/svg"><defs><linearGradient id="sw-gradient-0" x1="0" x2="0" y1="1" y2="0"><stop stop-color="rgba(246, 247, 251, 1)" offset="0%"/><stop stop-color="rgba(246, 247, 251, 1)" offset="100%"/></linearGradient></defs><path style="transform:translate(0, 0px); opacity:1" fill="url(#sw-gradient-0)" d="M0,50L80,55C160,60,320,70,480,65C640,60,800,40,960,28.3C1120,17,1280,13,1440,11.7C1600,10,1760,10,1920,23.3C2080,37,2240,63,2400,65C2560,67,2720,43,2880,28.3C3040,13,3200,7,3360,10C3520,13,3680,27,3840,30C4000,33,4160,27,4320,28.3C4480,30,4640,40,4800,50C4960,60,5120,70,5280,65C5440,60,5600,40,5760,28.3C5920,17,6080,13,6240,10C6400,7,6560,3,6720,6.7C6880,10,7040,20,7200,30C7360,40,7520,50,7680,56.7C7840,63,8000,67,8160,60C8320,53,8480,37,8640,31.7C8800,27,8960,33,9120,38.3C9280,43,9440,47,9600,50C9760,53,9920,57,10080,60C10240,63,10400,67,10560,63.3C10720,60,10880,50,11040,50C11200,50,11360,60,11440,65L11520,70L11520,100L11440,100C11360,100,11200,100,11040,100C10880,100,10720,100,10560,100C10400,100,10240,100,10080,100C9920,100,9760,100,9600,100C9440,100,9280,100,9120,100C8960,100,8800,100,8640,100C8480,100,8320,100,8160,100C8000,100,7840,100,7680,100C7520,100,7360,100,7200,100C7040,100,6880,100,6720,100C6560,100,6400,100,6240,100C6080,100,5920,100,5760,100C5600,100,5440,100,5280,100C5120,100,4960,100,4800,100C4640,100,4480,100,4320,100C4160,100,4000,100,3840,100C3680,100,3520,100,3360,100C3200,100,3040,100,2880,100C2720,100,2560,100,2400,100C2240,100,2080,100,1920,100C1760,100,1600,100,1440,100C1280,100,1120,100,960,100C800,100,640,100,480,100C320,100,160,100,80,100L0,100Z"/></svg>