<?xml version="1.0" standalone="no"?>
<svg xmlns:xlink="http://www.w3.org/1999/xlink" id="wave" style="transform:rotate(0deg); transition: 0.3s" viewBox="0 0 1440 100" version="1.1" xmlns="http://www.w3.org/2000/svg"><defs><linearGradient id="sw-gradient-0" x1="0" x2="0" y1="1" y2="0"><stop stop-color="rgba(246, 247, 251, 1)" offset="0%"/><stop stop-color="rgba(246, 247, 251, 1)" offset="100%"/></linearGradient></defs><path style="transform:translate(0, 0px); opacity:1" fill="url(#sw-gradient-0)" d="M0,40L80,41.7C160,43,320,47,480,40C640,33,800,17,960,15C1120,13,1280,27,1440,36.7C1600,47,1760,53,1920,53.3C2080,53,2240,47,2400,45C2560,43,2720,47,2880,41.7C3040,37,3200,23,3360,26.7C3520,30,3680,50,3840,63.3C4000,77,4160,83,4320,83.3C4480,83,4640,77,4800,65C4960,53,5120,37,5280,35C5440,33,5600,47,5760,50C5920,53,6080,47,6240,36.7C6400,27,6560,13,6720,13.3C6880,13,7040,27,7200,26.7C7360,27,7520,13,7680,20C7840,27,8000,53,8160,53.3C8320,53,8480,27,8640,18.3C8800,10,8960,20,9120,20C9280,20,9440,10,9600,11.7C9760,13,9920,27,10080,31.7C10240,37,10400,33,10560,41.7C10720,50,10880,70,11040,78.3C11200,87,11360,83,11440,81.7L11520,80L11520,100L11440,100C11360,100,11200,100,11040,100C10880,100,10720,100,10560,100C10400,100,10240,100,10080,100C9920,100,9760,100,9600,100C9440,100,9280,100,9120,100C8960,100,8800,100,8640,100C8480,100,8320,100,8160,100C8000,100,7840,100,7680,100C7520,100,7360,100,7200,100C7040,100,6880,100,6720,100C6560,100,6400,100,6240,100C6080,100,5920,100,5760,100C5600,100,5440,100,5280,100C5120,100,4960,100,4800,100C4640,100,4480,100,4320,100C4160,100,4000,100,3840,100C3680,100,3520,100,3360,100C3200,100,3040,100,2880,100C2720,100,2560,100,2400,100C2240,100,2080,100,1920,100C1760,100,1600,100,1440,100C1280,100,1120,100,960,100C800,100,640,100,480,100C320,100,160,100,80,100L0,100Z"/></svg>