<?xml version="1.0" standalone="no"?>
<svg xmlns:xlink="http://www.w3.org/1999/xlink" id="wave" style="transform:rotate(0deg); transition: 0.3s" viewBox="0 0 1440 100" version="1.1" xmlns="http://www.w3.org/2000/svg"><defs><linearGradient id="sw-gradient-0" x1="0" x2="0" y1="1" y2="0"><stop stop-color="rgba(255, 255, 255, 1)" offset="0%"/><stop stop-color="rgba(255, 255, 255, 1)" offset="100%"/></linearGradient></defs><path style="transform:translate(0, 0px); opacity:1" fill="url(#sw-gradient-0)" d="M0,80L80,70C160,60,320,40,480,38.3C640,37,800,53,960,65C1120,77,1280,83,1440,71.7C1600,60,1760,30,1920,16.7C2080,3,2240,7,2400,8.3C2560,10,2720,10,2880,11.7C3040,13,3200,17,3360,21.7C3520,27,3680,33,3840,36.7C4000,40,4160,40,4320,35C4480,30,4640,20,4800,18.3C4960,17,5120,23,5280,25C5440,27,5600,23,5760,28.3C5920,33,6080,47,6240,58.3C6400,70,6560,80,6720,73.3C6880,67,7040,43,7200,36.7C7360,30,7520,40,7680,38.3C7840,37,8000,23,8160,21.7C8320,20,8480,30,8640,41.7C8800,53,8960,67,9120,63.3C9280,60,9440,40,9600,33.3C9760,27,9920,33,10080,40C10240,47,10400,53,10560,56.7C10720,60,10880,60,11040,55C11200,50,11360,40,11440,35L11520,30L11520,100L11440,100C11360,100,11200,100,11040,100C10880,100,10720,100,10560,100C10400,100,10240,100,10080,100C9920,100,9760,100,9600,100C9440,100,9280,100,9120,100C8960,100,8800,100,8640,100C8480,100,8320,100,8160,100C8000,100,7840,100,7680,100C7520,100,7360,100,7200,100C7040,100,6880,100,6720,100C6560,100,6400,100,6240,100C6080,100,5920,100,5760,100C5600,100,5440,100,5280,100C5120,100,4960,100,4800,100C4640,100,4480,100,4320,100C4160,100,4000,100,3840,100C3680,100,3520,100,3360,100C3200,100,3040,100,2880,100C2720,100,2560,100,2400,100C2240,100,2080,100,1920,100C1760,100,1600,100,1440,100C1280,100,1120,100,960,100C800,100,640,100,480,100C320,100,160,100,80,100L0,100Z"/></svg>